<?xml version="1.0" encoding="UTF-8" standalone="no"?>
<!-- Created with Inkscape (http://www.inkscape.org/) -->

<svg
        width="156.94803mm"
        height="75.444115mm"
        viewBox="0 0 156.94803 75.444115"
        version="1.1"
        id="svg1"
        xmlns:inkscape="http://www.inkscape.org/namespaces/inkscape"
        xmlns:sodipodi="http://sodipodi.sourceforge.net/DTD/sodipodi-0.dtd"
        xmlns="http://www.w3.org/2000/svg"
>
    <sodipodi:namedview
            id="namedview1"
            pagecolor="#ffffff"
            bordercolor="#000000"
            borderopacity="0.25"
            inkscape:showpageshadow="2"
            inkscape:pageopacity="0.0"
            inkscape:pagecheckerboard="0"
            inkscape:deskcolor="#d1d1d1"
            inkscape:document-units="mm"/>
    <defs
            id="defs1"/>
    <g
            id="layer1"
            transform="translate(-29.337743,-48.03784)">
        <path
                d="m 169.17782,65.315925 c -12.99851,0 -13.1029,0.0058 -14.26063,0.79375 -1.68818,1.148958 -2.5212,2.44097 -2.70371,4.193026 -0.23532,2.259116 0.98997,4.470239 3.05976,5.520077 1.49378,0.757658 1.93665,0.799183 7.49722,0.705383 3.25022,-0.05481 5.90945,0.02273 5.9092,0.172082 -2.5e-4,0.14936 -3.5808,4.713831 -7.95662,10.143051 -4.37581,5.429218 -8.1255,10.356489 -8.33231,10.949719 -0.48899,1.402736 -0.10971,3.687737 0.83148,5.009517 0.41059,0.57661 1.39732,1.34721 2.19263,1.71204 1.34358,0.61635 2.3603,0.65709 14.35054,0.57619 l 12.90412,-0.0873 1.33274,-1.01648 c 1.67698,-1.27957 2.44625,-3.04999 2.21537,-5.098397 -0.19912,-1.766566 -1.03367,-3.05741 -2.71818,-4.203878 -1.10191,-0.749948 -1.51381,-0.79375 -7.46415,-0.79375 -3.46379,0 -6.2978,-0.0974 -6.2978,-0.216524 0,-0.11913 3.45282,-4.484835 7.67291,-9.701733 4.2201,-5.21691 7.95017,-10.001073 8.28942,-10.631393 0.84002,-1.560746 0.77543,-3.383403 -0.18448,-5.198649 -1.5013,-2.838964 -1.42983,-2.826701 -16.33751,-2.826701 z"
                id="path21"
                style="fill:#808080"/>
        <path
                d="m 140.63331,65.285955 c -1.85696,0 -3.71408,0.861929 -4.76457,2.584855 -0.67253,1.103068 -0.70128,1.806923 -0.70228,17.335893 -0.001,15.636757 0.0232,16.225227 0.71314,17.341577 0.3928,0.63557 1.38464,1.4876 2.20451,1.89343 1.91932,0.95004 3.30493,0.93296 5.19038,-0.0641 2.89545,-1.53115 2.82667,-1.06294 2.82567,-19.300635 -10e-4,-15.4 -0.0299,-16.103467 -0.70228,-17.206185 -1.05049,-1.722926 -2.90761,-2.584855 -4.76457,-2.584855 z"
                id="path20"
                style="fill:#808080"/>
        <path
                d="m 123.39767,65.267865 c -1.07974,-0.02339 -2.1536,0.269894 -3.09335,0.908472 -2.31506,1.573126 -2.42524,2.152461 -2.42724,12.774931 -0.001,5.314438 -0.15891,10.037287 -0.35967,10.760067 -0.45815,1.649446 -2.7161,3.710741 -4.41369,4.029211 -2.48061,0.465368 -5.22794,-0.912671 -6.29263,-3.156397 -0.48702,-1.026298 -0.57361,-2.685441 -0.57361,-10.956953 0,-10.69396 -0.0776,-11.176799 -2.09652,-13.076205 -1.01847,-0.958178 -1.34807,-1.058333 -3.48299,-1.058333 -1.874359,0 -2.584529,0.161117 -3.461279,0.786515 -2.152761,1.535548 -2.248446,2.107934 -2.248446,13.448792 0,6.181056 0.156099,10.989543 0.393257,12.117089 1.289129,6.128978 6.869328,11.692436 13.012638,12.973376 2.36166,0.49242 6.91979,0.14655 9.44646,-0.71676 4.14896,-1.41761 8.1804,-5.181397 9.93376,-9.274369 1.22279,-2.854474 1.48191,-5.932798 1.36632,-16.217098 -0.10356,-9.2146 -0.14707,-9.767673 -0.84698,-10.711491 -1.24013,-1.67234 -3.05647,-2.591862 -4.85603,-2.630847 z"
                id="path19"
                style="fill:#808080"/>
        <path
                d="m 59.139061,53.987417 c -2.366234,-0.0037 -4.732671,0.180331 -6.352067,0.553454 -13.953006,3.214914 -23.470745,14.806789 -23.449215,28.558981 0.0099,6.333626 1.464985,11.267834 4.807975,16.303914 3.11822,4.697474 5.001724,6.128834 8.062557,6.128834 2.123274,0 3.646115,-0.67386 4.995044,-2.21021 2.529541,-2.88098 2.423767,-5.471863 -0.398425,-9.736873 -2.514313,-3.799724 -3.420235,-6.244416 -3.629752,-9.796818 -0.208408,-3.533554 0.659213,-6.490083 2.768823,-9.436117 1.501137,-2.096316 4.837984,-4.67609 7.26829,-5.618778 11.452286,-4.442232 23.85082,5.454069 21.983154,17.546215 -0.778898,5.04288 -4.289234,10.184261 -9.167916,13.427605 -3.071154,2.041706 -4.136273,3.304416 -4.428153,5.250846 -0.25377,1.69221 -0.05872,2.22684 3.998205,10.96212 2.430596,5.2335 3.502801,6.74813 5.106149,7.21145 2.862954,0.8273 5.774595,0.16508 7.687903,-1.74822 2.225124,-2.22511 2.599535,-6.1088 0.824239,-8.55038 -1.511988,-2.07944 -2.319371,-3.83795 -2.122351,-4.62297 0.106048,-0.42254 1.25258,-1.70433 2.547648,-2.84841 C 86.593875,99.219983 89.958465,90.290211 88.910887,80.758909 87.485111,67.786465 78.344849,57.561829 65.491645,54.561025 63.871592,54.182807 61.505295,53.991143 59.139061,53.987417 Z"
                id="path18"
                style="fill:#3f83f8"/>
        <path
                d="m 140.66587,48.037909 c -1.72081,0.01222 -3.89742,1.185524 -4.74597,2.5585 -1.01547,1.643058 -1.09041,4.378588 -0.16329,5.966044 0.75784,1.297628 3.01407,2.741737 4.29741,2.750737 0.71044,0.005 0.79982,0.134693 0.61081,0.887801 -0.25715,1.024548 -0.15817,1.056629 1.15962,0.375171 0.98336,-0.50852 3.10683,-2.879849 3.86902,-4.320667 0.62369,-1.179016 0.49426,-4.018959 -0.2465,-5.400187 -0.75815,-1.413656 -3.16029,-2.828899 -4.7811,-2.817399 z"
                id="path2"
                style="fill:#808080"/>
    </g>
</svg>
